<svg width="111" height="52" viewBox="0 0 111 52" fill="none" xmlns="http://www.w3.org/2000/svg">
<path d="M33.768 9.184C33.768 10.144 33.56 10.864 33.144 11.344C32.76 11.824 32.12 12.064 31.224 12.064C31.16 12.736 31.016 13.904 30.792 15.568C30.472 17.808 30.296 19.056 30.264 19.312C27.416 40.528 21.48 51.136 12.456 51.136C9.8 51.136 7.72 50.384 6.216 48.88C4.744 47.376 4.008 45.488 4.008 43.216C4.008 39.152 5.736 35.568 9.192 32.464C12.648 29.328 17.192 26.736 22.824 24.688C23.176 22.416 23.448 20.384 23.64 18.592L24.504 11.344C22.584 11.152 20.792 11.056 19.128 11.056C14.68 11.056 11.4 11.488 9.288 12.352C7.176 13.216 6.12 14.624 6.12 16.576C6.12 17.536 6.44 18.576 7.08 19.696C7.272 20.016 7.368 20.352 7.368 20.704C7.368 21.376 7.016 21.984 6.312 22.528C5.64 23.04 4.904 23.296 4.104 23.296C3.08 23.296 2.296 22.864 1.752 22C0.856 20.528 0.408 18.816 0.408 16.864C0.408 9.184 7.128 5.344 20.568 5.344C24.472 5.344 27.96 5.728 31.032 6.496C32.856 6.944 33.768 7.84 33.768 9.184ZM13.08 46C14.648 46 16.216 44.816 17.784 42.448C19.352 40.08 20.728 35.936 21.912 30.016C14.104 33.44 10.2 37.632 10.2 42.592C10.2 43.68 10.456 44.528 10.968 45.136C11.48 45.712 12.184 46 13.08 46ZM40.35 46.24C38.91 46.24 37.726 45.584 36.798 44.272C35.902 42.928 35.454 41.264 35.454 39.28C35.454 36.88 35.614 34.688 35.934 32.704C36.254 30.688 36.782 28.56 37.518 26.32C37.838 25.36 38.286 24.672 38.862 24.256C39.438 23.84 40.35 23.632 41.598 23.632C42.302 23.632 42.782 23.744 43.038 23.968C43.326 24.192 43.47 24.528 43.47 24.976C43.47 25.232 43.294 26.096 42.942 27.568C42.622 28.752 42.366 29.824 42.174 30.784C41.534 34.144 41.214 36.384 41.214 37.504C41.214 38.176 41.294 38.656 41.454 38.944C41.614 39.2 41.87 39.328 42.222 39.328C42.702 39.328 43.294 38.848 43.998 37.888C44.734 36.928 45.502 35.472 46.302 33.52C47.134 31.568 47.934 29.168 48.702 26.32C48.958 25.36 49.342 24.672 49.854 24.256C50.398 23.84 51.198 23.632 52.254 23.632C52.99 23.632 53.502 23.728 53.79 23.92C54.078 24.08 54.222 24.4 54.222 24.88C54.222 25.68 53.822 27.872 53.022 31.456C52.126 35.552 51.678 38.08 51.678 39.04C51.678 39.648 51.806 40.128 52.062 40.48C52.318 40.8 52.654 40.96 53.07 40.96C53.71 40.96 54.462 40.576 55.326 39.808C56.222 39.008 57.406 37.728 58.878 35.968C59.262 35.52 59.694 35.296 60.174 35.296C60.59 35.296 60.91 35.488 61.134 35.872C61.39 36.256 61.518 36.784 61.518 37.456C61.518 38.736 61.214 39.728 60.606 40.432C59.23 42.128 57.742 43.52 56.142 44.608C54.574 45.696 52.782 46.24 50.766 46.24C49.23 46.24 48.094 45.648 47.358 44.464C46.654 43.28 46.302 41.616 46.302 39.472C45.758 41.648 44.942 43.328 43.854 44.512C42.766 45.664 41.598 46.24 40.35 46.24ZM78.2179 35.296C78.6339 35.296 78.9539 35.488 79.1779 35.872C79.4339 36.256 79.5619 36.784 79.5619 37.456C79.5619 38.736 79.2579 39.728 78.6499 40.432C77.2739 42.128 75.7699 43.52 74.1379 44.608C72.5379 45.696 70.7139 46.24 68.6659 46.24C65.8499 46.24 63.7539 44.96 62.3779 42.4C61.0339 39.84 60.3619 36.528 60.3619 32.464C60.3619 28.56 60.8579 24.112 61.8499 19.12C62.8739 14.128 64.3619 9.84 66.3139 6.256C68.2979 2.672 70.6499 0.879997 73.3699 0.879997C74.9059 0.879997 76.1059 1.6 76.9699 3.04C77.8659 4.448 78.3139 6.48 78.3139 9.136C78.3139 12.944 77.2579 17.36 75.1459 22.384C73.0339 27.408 70.1699 32.384 66.5539 37.312C66.7779 38.624 67.1459 39.568 67.6579 40.144C68.1699 40.688 68.8419 40.96 69.6739 40.96C70.9859 40.96 72.1379 40.592 73.1299 39.856C74.1219 39.088 75.3859 37.792 76.9219 35.968C77.3059 35.52 77.7379 35.296 78.2179 35.296ZM72.3139 5.632C71.5779 5.632 70.7459 6.96 69.8179 9.616C68.8899 12.272 68.0739 15.568 67.3699 19.504C66.6659 23.44 66.2819 27.216 66.2179 30.832C68.4899 27.088 70.2979 23.344 71.6419 19.6C72.9859 15.824 73.6579 12.384 73.6579 9.28C73.6579 6.848 73.2099 5.632 72.3139 5.632ZM84.3701 20.464C83.0261 20.464 82.0181 20.16 81.3461 19.552C80.6741 18.912 80.3381 18.032 80.3381 16.912C80.3381 15.792 80.7701 14.864 81.6341 14.128C82.5301 13.36 83.6341 12.976 84.9461 12.976C86.1301 12.976 87.0901 13.264 87.8261 13.84C88.5621 14.416 88.9301 15.232 88.9301 16.288C88.9301 17.568 88.5141 18.592 87.6821 19.36C86.8501 20.096 85.7461 20.464 84.3701 20.464ZM83.9861 46.24C81.9061 46.24 80.3861 45.504 79.4261 44.032C78.4981 42.56 78.0341 40.608 78.0341 38.176C78.0341 36.736 78.2101 34.896 78.5621 32.656C78.9461 30.384 79.4261 28.272 80.0021 26.32C80.2901 25.296 80.6741 24.592 81.1541 24.208C81.6341 23.824 82.4021 23.632 83.4581 23.632C85.0901 23.632 85.9061 24.176 85.9061 25.264C85.9061 26.064 85.6021 27.92 84.9941 30.832C84.2261 34.352 83.8421 36.736 83.8421 37.984C83.8421 38.944 83.9701 39.68 84.2261 40.192C84.4821 40.704 84.9141 40.96 85.5221 40.96C86.0981 40.96 86.8181 40.56 87.6821 39.76C88.5461 38.96 89.6981 37.696 91.1381 35.968C91.5221 35.52 91.9541 35.296 92.4341 35.296C92.8501 35.296 93.1701 35.488 93.3941 35.872C93.6501 36.256 93.7781 36.784 93.7781 37.456C93.7781 38.736 93.4741 39.728 92.8661 40.432C89.6981 44.304 86.7381 46.24 83.9861 46.24ZM109.479 36.736C109.895 36.736 110.215 36.928 110.439 37.312C110.695 37.696 110.823 38.224 110.823 38.896C110.823 40.048 110.551 41.04 110.007 41.872C109.111 43.248 107.927 44.32 106.455 45.088C105.015 45.856 103.287 46.24 101.271 46.24C98.1986 46.24 95.8146 45.328 94.1186 43.504C92.4226 41.648 91.5746 39.152 91.5746 36.016C91.5746 33.808 92.0386 31.76 92.9666 29.872C93.8946 27.952 95.1746 26.432 96.8066 25.312C98.4706 24.192 100.343 23.632 102.423 23.632C104.279 23.632 105.767 24.192 106.887 25.312C108.007 26.4 108.567 27.888 108.567 29.776C108.567 31.984 107.767 33.888 106.167 35.488C104.599 37.056 101.911 38.304 98.1026 39.232C98.8706 40.704 100.167 41.44 101.991 41.44C103.303 41.44 104.375 41.136 105.207 40.528C106.071 39.92 107.063 38.896 108.183 37.456C108.567 36.976 108.999 36.736 109.479 36.736ZM101.607 28.336C100.423 28.336 99.4146 29.024 98.5826 30.4C97.7826 31.776 97.3826 33.44 97.3826 35.392V35.488C99.2706 35.04 100.759 34.368 101.847 33.472C102.935 32.576 103.479 31.536 103.479 30.352C103.479 29.744 103.303 29.264 102.951 28.912C102.631 28.528 102.183 28.336 101.607 28.336Z" fill="#A52424"/>
</svg>
